<svg xmlns="http://www.w3.org/2000/svg" xmlns:xlink="http://www.w3.org/1999/xlink" width="200" zoomAndPan="magnify" viewBox="0 0 150 37.5" height="50" preserveAspectRatio="xMidYMid meet" version="1.0"><defs><g/></defs><g fill="#ffffff" fill-opacity="1"><g transform="translate(1.977464, 29.582759)"><g><path d="M 10.890625 -4.875 L 10.25 0 L -0.40625 0 L 7.65625 -23.6875 L 17.265625 -23.6875 L 25.3125 0 L 14.71875 0 L 14.078125 -4.875 Z M 12.765625 -14.796875 L 12.1875 -14.796875 L 11.34375 -7.453125 L 13.578125 -7.453125 Z M 12.765625 -14.796875 "/></g></g></g><g fill="#ffffff" fill-opacity="1"><g transform="translate(26.889897, 29.582759)"><g><path d="M 9.75 0 L 0.953125 0 L 0.953125 -23.6875 L 20.375 -23.6875 L 20.375 -13.671875 L 8.59375 -14.28125 L 8.59375 -12.59375 L 17.46875 -12.921875 L 17.46875 -8.46875 L 8.59375 -8.9375 Z M 9.75 0 "/></g></g></g><g fill="#ffffff" fill-opacity="1"><g transform="translate(47.943608, 29.582759)"><g><path d="M 8.5625 -9.609375 L 20.3125 -10.078125 L 20.3125 0 L 0.953125 0 L 0.953125 -23.6875 L 9.40625 -23.6875 Z M 8.5625 -9.609375 "/></g></g></g><g fill="#ffffff" fill-opacity="1"><g transform="translate(68.861932, 29.582759)"><g><path d="M 10.890625 -4.875 L 10.25 0 L -0.40625 0 L 7.65625 -23.6875 L 17.265625 -23.6875 L 25.3125 0 L 14.71875 0 L 14.078125 -4.875 Z M 12.765625 -14.796875 L 12.1875 -14.796875 L 11.34375 -7.453125 L 13.578125 -7.453125 Z M 12.765625 -14.796875 "/></g></g></g><g fill="#ffffff" fill-opacity="1"><g transform="translate(93.774366, 29.582759)"><g><path d="M 11.171875 0 L 0.84375 0 L 2.734375 -23.6875 L 12.453125 -23.6875 L 14.421875 -10.421875 L 14.921875 -10.421875 L 16.921875 -23.6875 L 26.59375 -23.6875 L 28.53125 0 L 18.171875 0 L 19.90625 -14.34375 L 19.390625 -14.421875 L 16.375 -2.875 L 12.96875 -2.875 L 9.984375 -14.421875 L 9.4375 -14.34375 Z M 11.171875 0 "/></g></g></g><g fill="#ffffff" fill-opacity="1"><g transform="translate(123.154796, 29.582759)"><g><path d="M 12.6875 -14.3125 L 14.015625 -23.6875 L 24.78125 -23.6875 L 15.734375 -9.3125 L 17.296875 0 L 7.546875 0 L 9.140625 -9.3125 L 0.0625 -23.6875 L 10.796875 -23.6875 L 12.15625 -14.3125 Z M 12.6875 -14.3125 "/></g></g></g></svg>